<svg xmlns="http://www.w3.org/2000/svg" width="49.56" height="49.62" viewBox="0 0 49.56 49.62">
  <defs>
    <style>
      .cls-1 {
        fill-rule: evenodd;
      }
    </style>
  </defs>
  <path class="cls-1" d="M1173.83,1823.19h-44.09a2.729,2.729,0,0,0-2.74,2.73v44.15a2.731,2.731,0,0,0,2.74,2.74h23.74V1853.6h-6.46v-7.49h6.46v-5.53c0-6.41,3.91-9.9,9.62-9.9a52.561,52.561,0,0,1,5.77.3v6.7h-3.96c-3.11,0-3.71,1.48-3.71,3.64v4.79h7.41l-0.96,7.49h-6.45v19.21h12.63a2.731,2.731,0,0,0,2.74-2.74v-44.15A2.729,2.729,0,0,0,1173.83,1823.19Z" transform="translate(-1127 -1823.19)"/>
</svg>
