<svg xmlns="http://www.w3.org/2000/svg" width="49.94" height="50" viewBox="0 0 49.94 50">
  <defs>
    <style>
      .cls-1 {
        fill-rule: evenodd;
      }
    </style>
  </defs>
  <path class="cls-1" d="M1356.03,1827.5c6.67,0,7.46.03,10.09,0.15a13.891,13.891,0,0,1,4.64.86,7.844,7.844,0,0,1,2.87,1.87,7.927,7.927,0,0,1,1.87,2.88,14.1,14.1,0,0,1,.86,4.64c0.12,2.63.14,3.42,0.14,10.1s-0.02,7.47-.14,10.1a14.1,14.1,0,0,1-.86,4.64,7.927,7.927,0,0,1-1.87,2.88,7.844,7.844,0,0,1-2.87,1.87,13.891,13.891,0,0,1-4.64.86c-2.63.12-3.42,0.15-10.09,0.15s-7.46-.03-10.09-0.15a13.832,13.832,0,0,1-4.64-.86,7.762,7.762,0,0,1-2.87-1.87,7.927,7.927,0,0,1-1.87-2.88,13.832,13.832,0,0,1-.86-4.64c-0.12-2.63-.14-3.42-0.14-10.1s0.02-7.47.14-10.1a13.832,13.832,0,0,1,.86-4.64,7.927,7.927,0,0,1,1.87-2.88,7.762,7.762,0,0,1,2.87-1.87,13.832,13.832,0,0,1,4.64-.86c2.63-.12,3.42-0.15,10.09-0.15m0-4.5c-6.78,0-7.63.03-10.3,0.15a18.27,18.27,0,0,0-6.06,1.16,12.834,12.834,0,0,0-7.3,7.31,18.282,18.282,0,0,0-1.16,6.07c-0.12,2.67-.15,3.52-0.15,10.31s0.03,7.64.15,10.31a18.282,18.282,0,0,0,1.16,6.07,12.834,12.834,0,0,0,7.3,7.31,18.27,18.27,0,0,0,6.06,1.16c2.67,0.12,3.52.15,10.3,0.15s7.63-.03,10.29-0.15a18.282,18.282,0,0,0,6.07-1.16,12.834,12.834,0,0,0,7.3-7.31,18.282,18.282,0,0,0,1.16-6.07c0.12-2.67.15-3.52,0.15-10.31s-0.03-7.64-.15-10.31a18.282,18.282,0,0,0-1.16-6.07,12.834,12.834,0,0,0-7.3-7.31,18.282,18.282,0,0,0-6.07-1.16c-2.66-.12-3.51-0.15-10.29-0.15h0Zm0,12.16a12.84,12.84,0,1,0,12.82,12.84A12.831,12.831,0,0,0,1356.03,1835.16Zm0,21.17a8.33,8.33,0,1,1,8.32-8.33A8.322,8.322,0,0,1,1356.03,1856.33Zm16.33-21.68a3,3,0,1,1-3-3A3.011,3.011,0,0,1,1372.36,1834.65Z" transform="translate(-1331.06 -1823)"/>
</svg>
