<svg xmlns="http://www.w3.org/2000/svg" width="46.41" height="37.76" viewBox="0 0 46.41 37.76">
  <defs>
    <style>
      .cls-1 {
        fill-rule: evenodd;
      }
    </style>
  </defs>
  <path class="cls-1" d="M1245.43,1866.87c17.51,0,27.1-14.52,27.1-27.1,0-.4,0-0.81-0.02-1.22a19.405,19.405,0,0,0,4.75-4.94,19.174,19.174,0,0,1-5.47,1.5,9.573,9.573,0,0,0,4.19-5.27,19.156,19.156,0,0,1-6.05,2.3,9.53,9.53,0,0,0-16.48,6.52,11.094,11.094,0,0,0,.24,2.17,27.033,27.033,0,0,1-19.63-9.95,9.558,9.558,0,0,0,2.96,12.72,9.634,9.634,0,0,1-4.31-1.19v0.13a9.529,9.529,0,0,0,7.63,9.34,9.39,9.39,0,0,1-2.51.34,9.506,9.506,0,0,1-1.78-.17,9.535,9.535,0,0,0,8.9,6.61,19.131,19.131,0,0,1-11.83,4.08,16.987,16.987,0,0,1-2.27-.13,27.05,27.05,0,0,0,14.58,4.26" transform="translate(-1230.84 -1829.12)"/>
</svg>
